<svg xmlns="http://www.w3.org/2000/svg" viewBox="0 0 2000 160" preserveAspectRatio="xMidYMid slice">
<defs>
<linearGradient id="bg" x1="0" y1="0" x2="1" y2="1"><stop offset="0" stop-color="#141722"/><stop offset="1" stop-color="#0D0F14"/></linearGradient>
<pattern id="grid" width="32" height="32" patternUnits="userSpaceOnUse"><path d="M32 0H0V32" fill="none" stroke="#1B1F2B" stroke-width="1"/></pattern>
<pattern id="pins" width="10" height="10" patternUnits="userSpaceOnUse"><circle cx="5" cy="5" r="1.6" fill="#3A4057"/></pattern>
</defs>
<rect width="2000" height="160" fill="url(#bg)"/>
<rect width="2000" height="160" fill="url(#grid)" opacity="0.55"/>
<path d="M1564 100L1549 28" stroke="#262B3B" stroke-width="6" stroke-linecap="round"/><path d="M1610 100L1605 28" stroke="#262B3B" stroke-width="6" stroke-linecap="round"/><path d="M1670 100L1675 28" stroke="#262B3B" stroke-width="6" stroke-linecap="round"/><path d="M1716 100L1731 28" stroke="#262B3B" stroke-width="6" stroke-linecap="round"/><path d="M1552 100H1740V128L1728 140H1540V112Z" fill="#171A23" stroke="#343A4F" stroke-width="2"/><circle cx="1580" cy="120" r="2.4" fill="#5F4DFC"/><circle cx="1600" cy="120" r="2.4" fill="#5F4DFC"/><circle cx="1620" cy="120" r="2.4" fill="#5F4DFC"/><circle cx="1640" cy="120" r="2.4" fill="#5F4DFC"/><circle cx="1660" cy="120" r="2.4" fill="#262B3B"/><circle cx="1680" cy="120" r="2.4" fill="#262B3B"/><path d="M1623.2 8.8A24 24 0 0 1 1656.8 8.8" fill="none" stroke="#5F4DFC" stroke-width="2.5" opacity="0.6"/><path d="M1606.4 1.6A48 48 0 0 1 1673.6 1.6" fill="none" stroke="#5F4DFC" stroke-width="2.5" opacity="0.4"/><path d="M1589.6 -5.6A72 72 0 0 1 1690.4 -5.6" fill="none" stroke="#5F4DFC" stroke-width="2.5" opacity="0.2"/><path d="M0 40L600 40L640 70L1000 70L1040 100L1500 100" fill="none" stroke="#5F4DFC" stroke-width="2" stroke-linejoin="round" opacity="0.7"/><circle cx="1500" cy="100" r="4.5" fill="#0D0F14" stroke="#5F4DFC" stroke-width="2" opacity="0.7"/><path d="M0 140L500 140L540 120L900 120" fill="none" stroke="#232838" stroke-width="2" stroke-linejoin="round" opacity="1"/><circle cx="900" cy="120" r="4.5" fill="#0D0F14" stroke="#232838" stroke-width="2" opacity="1"/>
</svg>
